<?xml version="1.0" encoding="UTF-8"?>
<!-- README banner, light-theme variant: indigo icon tile + dark wordmark. -->
<svg xmlns="http://www.w3.org/2000/svg" version="1.1" viewBox="0 0 356 121">
  <defs>
    <style>
      .backplate { fill: #c7d2fe; }
      .tile { fill: #6366f1; }
      .stroke { fill: none; stroke: #fff; stroke-linecap: round; stroke-linejoin: round; stroke-width: 3.2px; }
      .wordmark { fill: #1e1b4b; }
    </style>
  </defs>
  <g id="icon">
    <rect class="backplate" x="8.69" y="3.5" width="114" height="114" rx="31" ry="31" transform="translate(-7.78 9.73) rotate(-8)"/>
    <rect class="tile" x="11.68" y="6.5" width="108" height="108" rx="31" ry="31"/>
    <g>
      <circle class="stroke" cx="65.68" cy="45.5" r="15"/>
      <circle class="stroke" cx="65.68" cy="45.5" r="8.6"/>
      <path class="stroke" d="M59.68,67.87h12"/>
      <path class="stroke" d="M59.68,59.25v17.25"/>
      <path class="stroke" d="M71.68,59.25v17.25"/>
      <path class="stroke" d="M38.68,83.5c6-4,12-4,18,0s12,4,18,0,12-4,18,0"/>
      <path class="stroke" d="M33.68,95.5c6-4,12-4,18,0s12,4,18,0,12-4,18,0,12,4,18,0"/>
    </g>
  </g>
  <g id="wordmark">
    <path class="wordmark" d="M156.71,33.54v5.86c-1.52-.68-3-1.19-4.45-1.54-1.44-.35-2.81-.52-4.09-.52-1.71,0-2.97.24-3.79.71-.81.47-1.22,1.19-1.22,2.18,0,.74.27,1.32.82,1.74.55.41,1.55.77,3,1.06l3.04.61c3.08.62,5.26,1.56,6.56,2.82,1.3,1.26,1.95,3.05,1.95,5.38,0,3.05-.91,5.32-2.72,6.81s-4.58,2.24-8.3,2.24c-1.75,0-3.51-.17-5.28-.5-1.77-.33-3.54-.83-5.31-1.48v-6.02c1.77.94,3.48,1.65,5.13,2.12,1.65.47,3.24.71,4.78.71,1.56,0,2.75-.26,3.58-.78.83-.52,1.24-1.27,1.24-2.23,0-.86-.28-1.53-.84-2-.56-.47-1.68-.89-3.36-1.26l-2.76-.61c-2.77-.59-4.79-1.54-6.08-2.84-1.28-1.3-1.92-3.05-1.92-5.25,0-2.76.89-4.88,2.67-6.36,1.78-1.48,4.34-2.23,7.68-2.23,1.52,0,3.09.11,4.69.34,1.61.23,3.27.57,4.98,1.03ZM164.28,52.27v-12.68h6.68v2.08c0,1.12,0,2.54-.02,4.24-.01,1.7-.02,2.83-.02,3.4,0,1.67.04,2.87.13,3.61.09.74.24,1.27.45,1.61.27.43.62.77,1.06,1,.44.23.94.35,1.51.35,1.38,0,2.47-.53,3.26-1.6.79-1.06,1.19-2.54,1.19-4.43v-10.25h6.64v20.77h-6.64v-3c-1,1.21-2.06,2.1-3.18,2.68-1.12.57-2.35.86-3.7.86-2.4,0-4.23-.74-5.48-2.21-1.25-1.47-1.88-3.61-1.88-6.42ZM202.59,56.07c1.42,0,2.5-.52,3.25-1.56.75-1.04,1.13-2.55,1.13-4.53s-.38-3.49-1.13-4.52c-.75-1.04-1.83-1.56-3.25-1.56s-2.51.52-3.27,1.57c-.76,1.04-1.14,2.55-1.14,4.51,0,1.97.38,3.47,1.14,4.52.76,1.04,1.85,1.57,3.27,1.57ZM198.17,42.63c.92-1.21,1.93-2.1,3.04-2.68,1.11-.57,2.39-.86,3.84-.86,2.56,0,4.66,1.02,6.3,3.05,1.65,2.03,2.47,4.65,2.47,7.85s-.82,5.82-2.47,7.86c-1.64,2.03-3.74,3.05-6.3,3.05-1.45,0-2.73-.29-3.84-.86-1.11-.58-2.13-1.47-3.04-2.68v3h-6.63v-28.85h6.63v11.13ZM237.96,43.03c.84-1.29,1.84-2.26,3-2.94,1.16-.67,2.43-1.01,3.81-1.01,2.39,0,4.2.74,5.45,2.21,1.25,1.47,1.88,3.61,1.88,6.41v12.64h-6.68v-10.83c.01-.16.02-.33.02-.5,0-.17.01-.42.01-.74,0-1.47-.22-2.54-.65-3.2-.43-.66-1.13-1-2.09-1-1.26,0-2.23.52-2.92,1.56-.68,1.04-1.04,2.54-1.07,4.5v10.2h-6.68v-10.83c0-2.3-.2-3.78-.59-4.44-.4-.66-1.1-1-2.11-1-1.27,0-2.26.52-2.95,1.57-.69,1.04-1.04,2.54-1.04,4.48v10.22h-6.68v-20.77h6.68v3.04c.82-1.17,1.76-2.05,2.81-2.65,1.06-.59,2.22-.89,3.5-.89,1.43,0,2.7.35,3.8,1.04,1.1.69,1.94,1.66,2.5,2.91ZM279.02,49.92v1.89h-15.52c.16,1.56.72,2.73,1.69,3.51.97.78,2.31,1.17,4.04,1.17,1.4,0,2.83-.21,4.29-.62,1.47-.42,2.97-1.04,4.52-1.88v5.11c-1.57.59-3.14,1.04-4.71,1.35-1.57.3-3.14.46-4.71.46-3.76,0-6.68-.96-8.76-2.87-2.08-1.91-3.12-4.59-3.12-8.04s1.02-6.05,3.07-7.99c2.05-1.94,4.86-2.91,8.45-2.91,3.26,0,5.87.98,7.83,2.95,1.96,1.96,2.94,4.59,2.94,7.88ZM272.19,47.71c0-1.26-.37-2.28-1.1-3.05-.74-.78-1.7-1.16-2.88-1.16-1.29,0-2.33.36-3.13,1.09-.8.72-1.3,1.77-1.5,3.13h8.62ZM299.47,45.24c-.58-.27-1.16-.47-1.74-.6-.57-.13-1.15-.2-1.73-.2-1.71,0-3.02.55-3.94,1.64-.92,1.09-1.38,2.66-1.38,4.69v9.57h-6.63v-20.77h6.63v3.41c.85-1.36,1.83-2.35,2.94-2.97,1.11-.63,2.43-.94,3.98-.94.22,0,.46,0,.72.03.26.02.64.05,1.13.12l.02,6.01ZM316.9,56.83c-.91,1.21-1.92,2.1-3.03,2.67-1.1.57-2.37.85-3.81.85-2.54,0-4.63-1-6.29-2.99-1.65-2-2.48-4.54-2.48-7.64s.83-5.64,2.48-7.62c1.66-1.99,3.75-2.98,6.29-2.98,1.44,0,2.72.28,3.81.85,1.1.57,2.11,1.46,3.03,2.69v-3.08h6.68v18.67c0,3.34-1.05,5.89-3.16,7.65-2.11,1.76-5.16,2.64-9.17,2.64-1.3,0-2.55-.1-3.77-.3-1.21-.2-2.43-.5-3.65-.91v-5.17c1.16.67,2.29,1.17,3.41,1.49,1.12.33,2.23.49,3.36.49,2.18,0,3.77-.48,4.78-1.43,1.02-.95,1.52-2.44,1.52-4.47v-1.43ZM312.52,43.91c-1.37,0-2.44.51-3.21,1.52-.76,1.01-1.14,2.44-1.14,4.3s.37,3.35,1.11,4.33c.74.98,1.83,1.47,3.24,1.47,1.38,0,2.46-.51,3.23-1.52s1.15-2.44,1.15-4.28-.38-3.28-1.15-4.3c-.77-1.02-1.84-1.52-3.23-1.52ZM350.68,49.92v1.89h-15.52c.16,1.56.72,2.73,1.68,3.51.97.78,2.31,1.17,4.04,1.17,1.4,0,2.83-.21,4.29-.62,1.47-.42,2.97-1.04,4.52-1.88v5.11c-1.57.59-3.14,1.04-4.71,1.35-1.57.3-3.14.46-4.71.46-3.76,0-6.68-.96-8.76-2.87-2.08-1.91-3.12-4.59-3.12-8.04s1.02-6.05,3.07-7.99c2.05-1.94,4.86-2.91,8.45-2.91,3.26,0,5.87.98,7.83,2.95,1.96,1.96,2.94,4.59,2.94,7.88ZM343.86,47.71c0-1.26-.37-2.28-1.1-3.05-.74-.78-1.7-1.16-2.88-1.16-1.29,0-2.33.36-3.13,1.09-.8.72-1.3,1.77-1.5,3.13h8.62Z"/>
  </g>
</svg>
